<svg id="레이어_1" data-name="레이어 1" xmlns="http://www.w3.org/2000/svg" viewBox="0 0 140 140"><defs><style>.cls-1{fill:#564f97;}</style></defs><title>play1</title><path class="cls-1" d="M75.5,145.51a70,70,0,1,1,70-70A70.06,70.06,0,0,1,75.5,145.51Zm0-130.23a60.23,60.23,0,1,0,60.23,60.23A60.3,60.3,0,0,0,75.5,15.28Zm-13,90.44a11.49,11.49,0,0,1-5.73-1.56A11.3,11.3,0,0,1,51,94.26V56.69a11.39,11.39,0,0,1,5.73-9.9,11.18,11.18,0,0,1,11.39,0L100.7,65.61h0a11.24,11.24,0,0,1,5.67,9.9,11.38,11.38,0,0,1-5.67,9.9L68.14,104.22a11.08,11.08,0,0,1-5.73,1.57Zm0-50.66a2.59,2.59,0,0,0-.85.2,1.53,1.53,0,0,0-.78,1.43V94.26a1.66,1.66,0,0,0,.78,1.43,1.57,1.57,0,0,0,1.63,0L95.82,76.88a1.53,1.53,0,0,0,.78-1.44A1.64,1.64,0,0,0,95.75,74L63.19,55.19a4.4,4.4,0,0,0-.78-.19Z" transform="translate(-5.5 -5.51)"/></svg>