<svg id="레이어_1" data-name="레이어 1" xmlns="http://www.w3.org/2000/svg" viewBox="0 0 140 140"><defs><style>.cls-1{fill:#564f97;}</style></defs><title>stop1</title><path class="cls-1" d="M75,145a70,70,0,1,1,70-70A70.06,70.06,0,0,1,75,145ZM75,14.77A60.23,60.23,0,1,0,135.23,75,60.3,60.3,0,0,0,75,14.77ZM88,99.42H62A11.46,11.46,0,0,1,50.58,88V62A11.46,11.46,0,0,1,62,50.58H88A11.46,11.46,0,0,1,99.42,62V88A11.46,11.46,0,0,1,88,99.42ZM62,60.35A1.62,1.62,0,0,0,60.35,62V88A1.62,1.62,0,0,0,62,89.65H88A1.62,1.62,0,0,0,89.65,88V62A1.62,1.62,0,0,0,88,60.35Z" transform="translate(-5 -5)"/></svg>